<svg width="170" height="170" viewBox="0 0 170 170" fill="none" xmlns="http://www.w3.org/2000/svg">
<path d="M85 155.833C124.121 155.833 155.833 124.121 155.833 85C155.833 45.8787 124.121 14.1667 85 14.1667C45.8788 14.1667 14.1667 45.8787 14.1667 85C14.1667 124.121 45.8788 155.833 85 155.833Z" stroke="#50F9AC" stroke-width="1.5" stroke-miterlimit="10" stroke-linecap="round" stroke-linejoin="round"/>
<g opacity="0.4">
<path d="M131.042 33.9292C112.625 66.1583 77.1375 84.6458 40.1625 81.3167L17.7083 79.2625M38.9583 137.204C57.375 104.975 92.8625 86.4875 129.837 89.8167L152.292 91.8708" stroke="#50F9AC" stroke-width="1.5" stroke-miterlimit="10" stroke-linecap="round" stroke-linejoin="round"/>
<path d="M54.0458 21.25L76.5708 49.2292C91.6583 67.9292 102.354 89.675 108.021 112.979L116.592 148.325" stroke="#50F9AC" stroke-width="1.5" stroke-miterlimit="10" stroke-linecap="round" stroke-linejoin="round"/>
</g>
</svg>
