<svg width="117" height="57" viewBox="0 0 117 57" fill="none" xmlns="http://www.w3.org/2000/svg">
<path d="M40.8588 21.8276H39.2229V12.8154H40.8588V21.8276Z" fill="white"/>
<path d="M51.5746 21.8276C51.5746 21.1065 51.4347 20.4156 51.1549 19.7548C50.8752 19.0941 50.4981 18.4786 50.0238 17.9113C49.5494 17.3441 49.0233 16.8312 48.4395 16.3726C47.8557 15.914 47.2597 15.5308 46.6485 15.2261C46.0373 14.9213 45.4504 14.7011 44.8909 14.5713V21.8306H43.2397V12.8154H44.1307V12.8305C44.7237 12.8636 45.3561 12.9904 46.0221 13.2166C46.688 13.4399 47.357 13.7477 48.029 14.1429C48.701 14.5351 49.3426 14.9937 49.9538 15.5187C50.565 16.0437 51.1063 16.626 51.5806 17.2717V12.8154H53.2318V21.8276H51.5806H51.5746Z" fill="white"/>
<path d="M60.624 21.8276H58.9729V14.4386H54.5972V12.8154H64.9845V14.4386H60.624V21.8276Z" fill="white"/>
<path d="M76.9045 17.3049C76.9045 18.1346 76.7312 18.8919 76.3846 19.5738C76.0379 20.2557 75.5514 20.8018 74.9219 21.2121C74.2955 21.6224 73.5627 21.8276 72.7265 21.8276H69.8529C69.0167 21.8276 68.2808 21.6224 67.6484 21.2121C67.0159 20.8018 66.5263 20.2557 66.1796 19.5738C65.833 18.8919 65.6597 18.1346 65.6597 17.3049C65.6597 16.4752 65.833 15.7209 66.1796 15.045C66.5263 14.3692 67.0159 13.8261 67.6484 13.4218C68.2808 13.0175 69.0167 12.8154 69.8529 12.8154H72.7265C73.5627 12.8154 74.2955 13.0175 74.9219 13.4218C75.5483 13.8261 76.0379 14.3662 76.3846 15.045C76.7312 15.7239 76.9045 16.4752 76.9045 17.3049ZM75.2534 17.3049C75.2534 16.7799 75.153 16.3002 74.9554 15.8627C74.7577 15.4252 74.4689 15.0782 74.0888 14.8218C73.7087 14.5653 73.2556 14.4356 72.7265 14.4356H69.8529C69.3238 14.4356 68.8707 14.5653 68.4906 14.8218C68.1105 15.0782 67.8186 15.4252 67.6149 15.8627C67.4112 16.3002 67.3108 16.7799 67.3108 17.3049C67.3108 17.8299 67.4112 18.3096 67.6149 18.7471C67.8186 19.1846 68.1105 19.5346 68.4906 19.797C68.8707 20.0595 69.3238 20.1893 69.8529 20.1893H72.7265C73.2556 20.1893 73.7087 20.0595 74.0888 19.797C74.4689 19.5346 74.7577 19.1846 74.9554 18.7471C75.153 18.3096 75.2534 17.8299 75.2534 17.3049Z" fill="white"/>
<path d="M64.8507 34.8647C64.8507 36.3672 64.6105 37.7702 64.1362 39.0766C63.6588 40.383 62.9807 41.5295 62.0988 42.5161C61.217 43.5027 60.1588 44.2751 58.9273 44.8303C57.6927 45.3854 56.3304 45.663 54.8374 45.663H43.8601V42.5765H54.8374C56.2666 42.5765 57.5011 42.2265 58.5381 41.5265C59.575 40.8265 60.3686 39.8973 60.916 38.7357C61.4663 37.574 61.74 36.2827 61.74 34.8647C61.74 33.4466 61.4663 32.1492 60.916 30.9786C60.3656 29.8049 59.575 28.8756 58.5381 28.1877C57.5011 27.4998 56.2696 27.1528 54.8374 27.1528H42.3063V45.663H39.1956V24.0663H54.8344C56.3274 24.0663 57.6897 24.3439 58.9242 24.899C60.1588 25.4542 61.214 26.2296 62.0958 27.2283C62.9776 28.2269 63.6557 29.3765 64.1331 30.6829C64.6105 31.9893 64.8477 33.3832 64.8477 34.8647H64.8507Z" fill="white"/>
<path d="M86.3035 45.6631H68.457V28.6343H86.3035V31.751H71.5951V42.5494H86.3035V45.6661V45.6631ZM84.3148 38.6301H73.0578V35.5134H84.3148V38.6301Z" fill="white"/>
<path d="M109 28.6946L100.264 45.663H96.7183L87.9182 28.6946H91.4638L98.4911 42.2386L105.488 28.6946H109Z" fill="white"/>
<path d="M34.1773 7L10.7936 27.7187L34.1012 48H24.468L4.24977 30.4915C3.41659 29.8096 3 28.9105 3 27.7912C3 26.6718 3.41659 25.7485 4.24977 25.0184L24.617 7H34.1742H34.1773Z" fill="#50F9AC"/>
</svg>
